<svg id="logo.svg" xmlns="http://www.w3.org/2000/svg" width="69" height="71" viewBox="0 0 69 71">
  <defs>
    <style>
      .cls-1, .cls-2 {
        fill: none;
        stroke-width: 2px;
      }

      .cls-1 {
        stroke: #fff;
      }

      .cls-1, .cls-2, .cls-3 {
        fill-rule: evenodd;
      }

      .cls-2 {
        stroke: #f6f7fc;
      }

      .cls-3, .cls-4 {
        fill: #fff;
      }
    </style>
  </defs>
  <path class="cls-1" d="M990.675,352.857l-28.815-55-28.814,55h57.629Z" transform="translate(-927 -284)"/>
  <path class="cls-2" d="M961.5,285A33.216,33.216,0,1,1,928,318.214,33.357,33.357,0,0,1,961.5,285Z" transform="translate(-927 -284)"/>
  <path id="Ellipse_1_copy_8" data-name="Ellipse 1 copy 8" class="cls-3" d="M961.86,347.857a3.572,3.572,0,1,1-3.6,3.572A3.587,3.587,0,0,1,961.86,347.857Z" transform="translate(-927 -284)"/>
  <circle id="Ellipse_1_copy_9" data-name="Ellipse 1 copy 9" class="cls-4" cx="61.515" cy="67.422" r="3.61"/>
  <path id="Ellipse_1_copy_11" data-name="Ellipse 1 copy 11" class="cls-3" d="M933.043,347.857a3.572,3.572,0,1,1-3.6,3.572A3.587,3.587,0,0,1,933.043,347.857Z" transform="translate(-927 -284)"/>
</svg>
